# xmcd
#
# Track frame offsets: 
#        150
#        15102
#        27853
#        39950
#        51679
#        65705
#        79741
#        92799
#        108167
#        120945
#        135815
#        149798
#        160341
#        175007
#        188048
#        200359
#        213748
#        227497
#        238157
#        247942
#
# Disc length: 3463 seconds
#
# Revision: 1
# Processed by: cddbd v1.5.2PL0 Copyright (c) Steve Scherf et al.
# Submitted via: ExactAudioCopy v0.99pb4
#
DISCID=080d8514
DTITLE=Django Reinhardt - 1947 Vol. 2
DYEAR=1947
DGENRE=Jazz
TTITLE0=September Song
TTITLE1=Brazil
TTITLE2=I'll Never Smile Again
TTITLE3=New York City
TTITLE4=Django's Blues
TTITLE5=Love's Mood
TTITLE6=I Love  You
TTITLE7=Nuages
TTITLE8=Minor Swing
TTITLE9=Stockholm
TTITLE10=Topsy
TTITLE11=Moppin' the Bride
TTITLE12=Insensiblement
TTITLE13=Mano
TTITLE14=Blues primitif
TTITLE15=Gypsy With a Song [part 2]
TTITLE16=Gypsy With a Song [part 1]
TTITLE17=Douce ambiance
TTITLE18=What Is This Thing Called Love
TTITLE19=Ol' Man River
EXTD=YEAR: 1947
EXTT0=
EXTT1=
EXTT2=
EXTT3=
EXTT4=
EXTT5=
EXTT6=
EXTT7=
EXTT8=
EXTT9=
EXTT10=
EXTT11=
EXTT12=
EXTT13=
EXTT14=
EXTT15=
EXTT16=
EXTT17=
EXTT18=
EXTT19=
PLAYORDER=
